<mxfile host="app.diagrams.net" modified="2022-03-10T09:31:56.792Z" agent="5.0 (Macintosh; Intel Mac OS X 10_15_7) AppleWebKit/537.36 (KHTML, like Gecko) Chrome/98.0.4758.102 Safari/537.36" etag="aNG6uT091FIEZDRlsOvT" version="16.6.5" type="github">
  <diagram id="-qaMt7oSKCFBSmfV2nXP" name="Page-1">
    <mxGraphModel dx="860" dy="506" grid="1" gridSize="10" guides="1" tooltips="1" connect="1" arrows="1" fold="1" page="1" pageScale="1" pageWidth="827" pageHeight="1169" math="0" shadow="0">
      <root>
        <mxCell id="0" />
        <mxCell id="1" parent="0" />
        <mxCell id="HjM0LNppH6Udv3qB4XNf-1" value="" style="rounded=0;whiteSpace=wrap;html=1;" vertex="1" parent="1">
          <mxGeometry x="50" y="110" width="760" height="380" as="geometry" />
        </mxCell>
        <mxCell id="HjM0LNppH6Udv3qB4XNf-2" value="" style="rounded=0;whiteSpace=wrap;html=1;" vertex="1" parent="1">
          <mxGeometry x="80" y="170" width="560" height="210" as="geometry" />
        </mxCell>
        <mxCell id="HjM0LNppH6Udv3qB4XNf-3" value="&lt;font style=&quot;vertical-align: inherit&quot;&gt;&lt;font style=&quot;vertical-align: inherit&quot;&gt;&lt;font style=&quot;vertical-align: inherit&quot;&gt;&lt;font style=&quot;vertical-align: inherit&quot;&gt;&lt;font style=&quot;vertical-align: inherit&quot;&gt;&lt;font style=&quot;vertical-align: inherit&quot; size=&quot;1&quot;&gt;&lt;b style=&quot;font-size: 19px&quot;&gt;RLWB SDK&lt;/b&gt;&lt;/font&gt;&lt;/font&gt;&lt;/font&gt;&lt;/font&gt;&lt;/font&gt;&lt;/font&gt;" style="text;html=1;strokeColor=none;fillColor=none;align=center;verticalAlign=middle;whiteSpace=wrap;rounded=0;" vertex="1" parent="1">
          <mxGeometry x="338" y="120" width="114" height="30" as="geometry" />
        </mxCell>
        <mxCell id="HjM0LNppH6Udv3qB4XNf-4" value="" style="rounded=0;whiteSpace=wrap;html=1;fontSize=19;" vertex="1" parent="1">
          <mxGeometry x="80" y="400" width="700" height="60" as="geometry" />
        </mxCell>
        <mxCell id="HjM0LNppH6Udv3qB4XNf-5" value="" style="rounded=0;whiteSpace=wrap;html=1;fontSize=19;" vertex="1" parent="1">
          <mxGeometry x="660" y="170" width="120" height="210" as="geometry" />
        </mxCell>
        <mxCell id="HjM0LNppH6Udv3qB4XNf-6" value="&lt;font style=&quot;font-size: 17px&quot;&gt;基础功能&lt;/font&gt;" style="text;html=1;strokeColor=none;fillColor=none;align=center;verticalAlign=middle;whiteSpace=wrap;rounded=0;fontSize=19;" vertex="1" parent="1">
          <mxGeometry x="292.5" y="170" width="95" height="30" as="geometry" />
        </mxCell>
        <mxCell id="HjM0LNppH6Udv3qB4XNf-7" value="&lt;span style=&quot;font-size: 17px&quot;&gt;核心支撑&lt;/span&gt;" style="text;html=1;strokeColor=none;fillColor=none;align=center;verticalAlign=middle;whiteSpace=wrap;rounded=0;fontSize=19;" vertex="1" parent="1">
          <mxGeometry x="90" y="415" width="95" height="30" as="geometry" />
        </mxCell>
        <mxCell id="HjM0LNppH6Udv3qB4XNf-8" value="&lt;span style=&quot;font-size: 17px&quot;&gt;三方依赖&lt;/span&gt;" style="text;html=1;strokeColor=none;fillColor=none;align=center;verticalAlign=middle;whiteSpace=wrap;rounded=0;fontSize=19;" vertex="1" parent="1">
          <mxGeometry x="672.5" y="170" width="95" height="30" as="geometry" />
        </mxCell>
        <mxCell id="HjM0LNppH6Udv3qB4XNf-9" value="&lt;font style=&quot;font-size: 13px&quot;&gt;EnvSDK&lt;/font&gt;" style="rounded=0;whiteSpace=wrap;html=1;fontSize=17;" vertex="1" parent="1">
          <mxGeometry x="160" y="210" width="75" height="40" as="geometry" />
        </mxCell>
        <mxCell id="HjM0LNppH6Udv3qB4XNf-12" value="&lt;font style=&quot;font-size: 13px&quot;&gt;PolicySDK&lt;/font&gt;" style="rounded=0;whiteSpace=wrap;html=1;fontSize=17;" vertex="1" parent="1">
          <mxGeometry x="250" y="210" width="80" height="40" as="geometry" />
        </mxCell>
        <mxCell id="HjM0LNppH6Udv3qB4XNf-13" value="&lt;font style=&quot;font-size: 13px&quot;&gt;ModelSDK&lt;/font&gt;" style="rounded=0;whiteSpace=wrap;html=1;fontSize=17;" vertex="1" parent="1">
          <mxGeometry x="350" y="210" width="90" height="40" as="geometry" />
        </mxCell>
        <mxCell id="HjM0LNppH6Udv3qB4XNf-14" value="&lt;font style=&quot;font-size: 13px&quot;&gt;TrainerSDK&lt;/font&gt;" style="rounded=0;whiteSpace=wrap;html=1;fontSize=17;" vertex="1" parent="1">
          <mxGeometry x="452" y="210" width="80" height="40" as="geometry" />
        </mxCell>
        <mxCell id="HjM0LNppH6Udv3qB4XNf-15" value="&lt;span style=&quot;font-size: 13px&quot;&gt;... ...&lt;/span&gt;" style="rounded=0;whiteSpace=wrap;html=1;fontSize=17;" vertex="1" parent="1">
          <mxGeometry x="550" y="210" width="70" height="40" as="geometry" />
        </mxCell>
        <mxCell id="HjM0LNppH6Udv3qB4XNf-16" value="&lt;span style=&quot;font-size: 13px&quot;&gt;逻辑模块（中间层，具体业务逻辑及功能实现）&lt;/span&gt;" style="rounded=0;whiteSpace=wrap;html=1;fontSize=17;" vertex="1" parent="1">
          <mxGeometry x="160" y="270" width="460" height="40" as="geometry" />
        </mxCell>
        <mxCell id="HjM0LNppH6Udv3qB4XNf-17" value="&lt;span style=&quot;font-size: 13px&quot;&gt;核心模块（初始化、配置、日志、网络请求、数据存储等基础工具方法）&lt;/span&gt;" style="rounded=0;whiteSpace=wrap;html=1;fontSize=17;" vertex="1" parent="1">
          <mxGeometry x="160" y="325" width="460" height="40" as="geometry" />
        </mxCell>
        <mxCell id="HjM0LNppH6Udv3qB4XNf-18" value="&lt;span style=&quot;font-size: 13px&quot;&gt;RLlib&lt;/span&gt;" style="rounded=0;whiteSpace=wrap;html=1;fontSize=17;" vertex="1" parent="1">
          <mxGeometry x="680" y="210" width="80" height="30" as="geometry" />
        </mxCell>
        <mxCell id="HjM0LNppH6Udv3qB4XNf-20" value="&lt;span style=&quot;font-size: 13px&quot;&gt;Tune&lt;/span&gt;" style="rounded=0;whiteSpace=wrap;html=1;fontSize=17;" vertex="1" parent="1">
          <mxGeometry x="680" y="250" width="80" height="30" as="geometry" />
        </mxCell>
        <mxCell id="HjM0LNppH6Udv3qB4XNf-21" value="&lt;span style=&quot;font-size: 13px&quot;&gt;Workflow&lt;/span&gt;" style="rounded=0;whiteSpace=wrap;html=1;fontSize=17;" vertex="1" parent="1">
          <mxGeometry x="680" y="290" width="80" height="30" as="geometry" />
        </mxCell>
        <mxCell id="HjM0LNppH6Udv3qB4XNf-22" value="&lt;span style=&quot;font-size: 13px&quot;&gt;Ray Libs&lt;/span&gt;" style="rounded=0;whiteSpace=wrap;html=1;fontSize=17;" vertex="1" parent="1">
          <mxGeometry x="680" y="330" width="80" height="30" as="geometry" />
        </mxCell>
        <mxCell id="HjM0LNppH6Udv3qB4XNf-23" value="&lt;span style=&quot;font-size: 13px&quot;&gt;Ray&lt;/span&gt;" style="rounded=0;whiteSpace=wrap;html=1;fontSize=17;" vertex="1" parent="1">
          <mxGeometry x="225" y="410" width="430" height="40" as="geometry" />
        </mxCell>
        <mxCell id="HjM0LNppH6Udv3qB4XNf-26" value="&lt;font style=&quot;font-size: 15px&quot;&gt;API层&lt;/font&gt;" style="text;html=1;strokeColor=none;fillColor=none;align=center;verticalAlign=middle;whiteSpace=wrap;rounded=0;fontSize=13;" vertex="1" parent="1">
          <mxGeometry x="90" y="215" width="60" height="30" as="geometry" />
        </mxCell>
        <mxCell id="HjM0LNppH6Udv3qB4XNf-27" value="&lt;span style=&quot;font-size: 15px&quot;&gt;Model层&lt;/span&gt;" style="text;html=1;strokeColor=none;fillColor=none;align=center;verticalAlign=middle;whiteSpace=wrap;rounded=0;fontSize=13;" vertex="1" parent="1">
          <mxGeometry x="90" y="275" width="60" height="30" as="geometry" />
        </mxCell>
        <mxCell id="HjM0LNppH6Udv3qB4XNf-28" value="&lt;span style=&quot;font-size: 15px&quot;&gt;Frame-&lt;br&gt;work层&lt;/span&gt;" style="text;html=1;strokeColor=none;fillColor=none;align=center;verticalAlign=middle;whiteSpace=wrap;rounded=0;fontSize=13;" vertex="1" parent="1">
          <mxGeometry x="90" y="330" width="60" height="30" as="geometry" />
        </mxCell>
      </root>
    </mxGraphModel>
  </diagram>
</mxfile>
